/* XPM */
static char * 256_xpm[] = {
"32 32 2 1",
" 	c #FFFFFFFFFFFF",
".	c #000000000000",
"                                ",
"                                ",
"                                ",
"                                ",
"                                ",
"                                ",
"                                ",
"                                ",
"      ...... ...... ......      ",
"           . .      .           ",
"           . .      .           ",
"           . .      .           ",
"           . .      .           ",
"           . .      .           ",
"           . .      .           ",
"      ...... ...... ......      ",
"      .           . .    .      ",
"      .           . .    .      ",
"      .           . .    .      ",
"      ..         .. .   ..      ",
"      ..         .. .   ..      ",
"      ..         .. .   ..      ",
"      ...... ...... ......      ",
"                                ",
"                                ",
"                                ",
"                                ",
"                                ",
"                                ",
"                                ",
"                                ",
"                                "};
