/* XPM */
static char * 8192_xpm[] = {
"32 32 2 1",
" 	c #FFFFFFFFFFFF",
".	c #000000000000",
"                                ",
"                                ",
"                                ",
"                                ",
"                                ",
"                                ",
"                                ",
"                                ",
"    ......  .  ...... ......    ",
"    .    .  .  .    .      .    ",
"    .    .  .  .    .      .    ",
"    .    .  .  .    .      .    ",
"    .    .  .  .    .      .    ",
"    .    .  .  .    .      .    ",
"    .    .  .  .    .      .    ",
"    ......  .  ...... ......    ",
"    .    .  .       . .         ",
"    .    .  .       . .         ",
"    .    .  .       . .         ",
"    .   .. ..      .. ..        ",
"    .   .. ..      .. ..        ",
"    .   .. ..      .. ..        ",
"    ...... ..  ...... ......    ",
"                                ",
"                                ",
"                                ",
"                                ",
"                                ",
"                                ",
"                                ",
"                                ",
"                                "};
